<svg width="314" height="56" viewBox="0 0 314 56" fill="none" xmlns="http://www.w3.org/2000/svg">
<g clip-path="url(#clip0_1582_7661)">
<path d="M156.126 32.3168L155.075 34.9788H148.305L149.104 32.9084C149.356 32.2746 149.314 31.852 149.02 31.6408C148.726 31.4295 147.927 31.3028 146.581 31.3028H144.1L139.012 44.1901H131.906L138.214 28.2605H150.155C152.931 28.2605 154.781 28.5563 155.664 29.1478C156.589 29.7816 156.715 30.7957 156.126 32.3168Z" fill="#5066B0"/>
<path d="M182.785 31.5985H173.408C170.843 31.5985 169.035 31.8098 167.942 32.2323C166.89 32.6549 166.091 33.4577 165.587 34.5985H181.607L180.304 37.9366H164.283C163.905 39.0774 164.031 39.838 164.704 40.2605C165.377 40.683 167.016 40.8943 169.708 40.8943H179.126L177.823 44.2323H167.479C163.022 44.2323 159.952 43.5563 158.186 42.2042C156.42 40.852 156.084 38.8661 157.135 36.2464C158.186 33.6267 160.12 31.6408 162.938 30.2887C165.755 28.9366 169.371 28.2605 173.828 28.2605H184.172L182.785 31.5985Z" fill="#5066B0"/>
<path d="M211.672 31.5985H199.142C197.081 31.5985 195.736 31.7253 195.021 31.9365C194.306 32.1478 193.886 32.5281 193.633 33.0774C193.423 33.5844 193.549 33.9224 194.012 34.176C194.474 34.3872 195.273 34.514 196.409 34.514H202.842C205.785 34.514 207.846 34.9365 209.065 35.7394C210.285 36.5422 210.579 37.7253 209.99 39.2464C209.402 40.7253 208.224 41.9084 206.5 42.8379C204.776 43.7675 202.8 44.2323 200.655 44.2323H182.322L183.626 40.8943H198.595C199.941 40.8943 200.95 40.7675 201.623 40.514C202.337 40.2605 202.8 39.8802 203.01 39.3309C203.22 38.7816 203.094 38.4013 202.548 38.1478C202.043 37.8943 201.118 37.7675 199.814 37.7675H193.675C190.059 37.7675 187.704 37.4295 186.695 36.7957C185.686 36.1196 185.518 34.9788 186.191 33.2886C186.863 31.5563 188.125 30.3309 190.017 29.5281C191.867 28.7253 194.432 28.3027 197.67 28.3027H212.892L211.672 31.5985Z" fill="#5066B0"/>
<path d="M241.864 31.5985H229.333C227.273 31.5985 225.927 31.7253 225.212 31.9365C224.497 32.1478 224.077 32.5281 223.825 33.0774C223.614 33.5844 223.741 33.9224 224.203 34.176C224.666 34.3872 225.465 34.514 226.6 34.514H233.033C235.977 34.514 238.037 34.9365 239.257 35.7394C240.476 36.5422 240.77 37.7253 240.182 39.2464C239.593 40.7253 238.416 41.9084 236.692 42.8379C234.968 43.7675 232.991 44.2323 230.847 44.2323H212.514L213.817 40.8943H228.786C230.132 40.8943 231.141 40.7675 231.814 40.514C232.529 40.2605 232.991 39.8802 233.202 39.3309C233.412 38.7816 233.286 38.4013 232.739 38.1478C232.234 37.8943 231.309 37.7675 230.006 37.7675H223.867C220.251 37.7675 217.896 37.4295 216.887 36.7957C215.878 36.1196 215.709 34.9788 216.382 33.2886C217.055 31.5563 218.316 30.3309 220.209 29.5281C222.059 28.7253 224.624 28.3027 227.861 28.3027H243.083L241.864 31.5985Z" fill="#5066B0"/>
<path d="M81.7844 26.2325H65.2172C62.1897 26.2325 59.7509 26.824 57.9008 27.9649C56.0507 29.1057 54.621 30.9649 53.6118 33.5001C52.6868 35.8663 52.6868 37.5987 53.6539 38.655C54.621 39.7114 56.5973 40.2607 59.6248 40.2607H68.2868L70.3051 35.148H60.0032L61.517 31.3029H79.724L74.6361 44.1902H58.069C54.9994 44.1902 52.7288 44.0635 51.2151 43.7677C49.7013 43.4719 48.3558 42.9649 47.2205 42.2888C45.7067 41.4015 44.7396 40.2607 44.3612 38.824C43.9827 37.3874 44.193 35.6973 44.9919 33.7114C46.5056 29.8663 49.0286 27.0353 52.5606 25.2184C56.0927 23.4015 60.8021 22.4719 66.6889 22.4719H83.2561L81.7844 26.2325Z" fill="#5066B0"/>
<path d="M312 0.5H297.872L236.775 50.9085H1.68194L0 54.5H246.446H246.488L312 0.5Z" fill="#EE3026"/>
<path d="M41.1652 25.2606C39.1048 23.4437 35.1102 22.5142 29.2234 22.5142H12.4881L3.86816 44.1902H20.8558C23.7151 44.1902 26.0277 44.0635 27.7938 43.7677C29.5598 43.4719 31.2838 43.0071 33.0078 42.2888C35.2364 41.4015 37.0865 40.2606 38.6002 38.824C40.114 37.3874 41.2493 35.6973 42.0482 33.7113C43.562 29.9085 43.2676 27.0775 41.1652 25.2606ZM33.7647 33.3733C32.7135 36.0775 31.3258 37.8944 29.6439 38.9085C27.962 39.9226 25.397 40.4297 21.9911 40.4297H13.0768L18.6692 26.2747H27.5835C30.9895 26.2747 33.1339 26.7818 34.017 27.7959C34.9 28.8522 34.8159 30.6691 33.7647 33.3733Z" fill="#5066B0"/>
<path d="M129.046 30.5421C127.323 29.1055 124.379 28.3872 120.258 28.3872H106.593L97.9727 50.1055H105.079L107.349 44.3168H113.446C116.138 44.3168 118.366 44.1478 120.132 43.7675C121.898 43.3872 123.538 42.7534 125.052 41.8661C126.313 41.1478 127.365 40.345 128.206 39.4576C129.046 38.5703 129.677 37.5985 130.098 36.5421C131.149 33.9647 130.77 31.9788 129.046 30.5421ZM122.781 36.2464C122.108 37.9365 121.057 39.1196 119.586 39.8379C118.114 40.5562 115.927 40.8942 113.068 40.8942H108.737L112.353 31.8097H117.231C119.922 31.8097 121.688 32.1478 122.529 32.8238C123.328 33.4576 123.454 34.5985 122.781 36.2464Z" fill="#5066B0"/>
</g>
<defs>
<clipPath id="clip0_1582_7661">
<rect width="314" height="55" fill="white" transform="translate(0 0.5)"/>
</clipPath>
</defs>
</svg>
