<svg width="172" height="31" viewBox="0 0 172 31" fill="none" xmlns="http://www.w3.org/2000/svg">
<g clip-path="url(#clip0_1300_6594)">
<path d="M85.8876 18.1852L85.3142 19.6372H81.6216L82.0574 18.5079C82.195 18.1622 82.1721 17.9317 82.0115 17.8164C81.851 17.7012 81.4152 17.6321 80.6813 17.6321H79.3281L76.5529 24.6615H72.6768L76.1171 15.9727H82.6308C84.1445 15.9727 85.1537 16.134 85.6353 16.4567C86.1399 16.8024 86.2087 17.3555 85.8876 18.1852Z" fill="white"/>
<path d="M100.429 17.7934H95.3139C93.9148 17.7934 92.9286 17.9086 92.3323 18.1391C91.7589 18.3696 91.3231 18.8075 91.0479 19.4298H99.7863L99.0753 21.2505H90.3369C90.1305 21.8728 90.1993 22.2876 90.5662 22.5181C90.9332 22.7486 91.8277 22.8638 93.2956 22.8638H98.4331L97.7221 24.6846H92.08C89.6488 24.6846 87.9745 24.3158 87.0112 23.5783C86.0479 22.8408 85.8644 21.7575 86.4378 20.3286C87.0112 18.8997 88.0663 17.8164 89.6029 17.0789C91.1396 16.3414 93.1121 15.9727 95.5433 15.9727H101.185L100.429 17.7934Z" fill="white"/>
<path d="M116.185 17.7934H109.35C108.226 17.7934 107.492 17.8626 107.102 17.9778C106.712 18.093 106.483 18.3005 106.345 18.6001C106.231 18.8766 106.3 19.061 106.552 19.1993C106.804 19.3145 107.24 19.3837 107.859 19.3837H111.368C112.974 19.3837 114.098 19.6142 114.763 20.0521C115.428 20.49 115.588 21.1353 115.267 21.965C114.946 22.7717 114.304 23.417 113.364 23.924C112.423 24.4311 111.345 24.6846 110.176 24.6846H100.176L100.887 22.8638H109.052C109.786 22.8638 110.336 22.7947 110.703 22.6564C111.093 22.5181 111.345 22.3107 111.46 22.0111C111.575 21.7115 111.506 21.504 111.208 21.3658C110.933 21.2275 110.428 21.1583 109.717 21.1583H106.368C104.396 21.1583 103.112 20.974 102.561 20.6283C102.011 20.2595 101.919 19.6372 102.286 18.7153C102.653 17.7704 103.341 17.102 104.373 16.6641C105.382 16.2262 106.781 15.9957 108.547 15.9957H116.85L116.185 17.7934Z" fill="white"/>
<path d="M132.653 17.7934H125.818C124.694 17.7934 123.96 17.8626 123.57 17.9778C123.18 18.093 122.951 18.3005 122.813 18.6001C122.699 18.8766 122.767 19.061 123.02 19.1993C123.272 19.3145 123.708 19.3837 124.327 19.3837H127.836C129.442 19.3837 130.565 19.6142 131.231 20.0521C131.896 20.49 132.056 21.1353 131.735 21.965C131.414 22.7717 130.772 23.417 129.831 23.924C128.891 24.4311 127.813 24.6846 126.643 24.6846H116.644L117.355 22.8638H125.52C126.254 22.8638 126.804 22.7947 127.171 22.6564C127.561 22.5181 127.813 22.3107 127.928 22.0111C128.043 21.7115 127.974 21.504 127.676 21.3658C127.4 21.2275 126.896 21.1583 126.185 21.1583H122.836C120.864 21.1583 119.579 20.974 119.029 20.6283C118.478 20.2595 118.387 19.6372 118.754 18.7153C119.121 17.7704 119.809 17.102 120.841 16.6641C121.85 16.2262 123.249 15.9957 125.015 15.9957H133.318L132.653 17.7934Z" fill="white"/>
<path d="M45.3374 14.8664H36.3008C34.6494 14.8664 33.3191 15.1891 32.31 15.8113C31.3008 16.4336 30.521 17.4477 29.9705 18.8306C29.466 20.1212 29.466 21.0661 29.9935 21.6423C30.521 22.2185 31.599 22.5181 33.2503 22.5181H37.975L39.076 19.7294H33.4567L34.2824 17.6321H44.2135L41.4383 24.6615H32.4017C30.7274 24.6615 29.4889 24.5924 28.6632 24.4311C27.8375 24.2697 27.1036 23.9932 26.4843 23.6244C25.6587 23.1404 25.1311 22.5181 24.9247 21.7345C24.7183 20.9509 24.833 20.029 25.2688 18.9458C26.0944 16.8485 27.4706 15.3043 29.3972 14.3133C31.3237 13.3222 33.8925 12.8152 37.1035 12.8152H46.1401L45.3374 14.8664Z" fill="white"/>
<path d="M170.909 0.830566H163.203L129.878 28.3261H1.64496L0.727539 30.2851H135.153H135.176L170.909 0.830566Z" fill="#EE3026"/>
<path d="M23.1817 14.3363C22.0579 13.3453 19.879 12.8383 16.668 12.8383H7.53968L2.83789 24.6616H12.1039C13.6635 24.6616 14.9249 24.5924 15.8882 24.4311C16.8515 24.2698 17.7919 24.0162 18.7322 23.6244C19.9478 23.1404 20.957 22.5182 21.7827 21.7345C22.6083 20.9509 23.2276 20.029 23.6634 18.9458C24.4891 16.8715 24.3285 15.3274 23.1817 14.3363ZM19.1451 18.7614C18.5717 20.2365 17.8148 21.2275 16.8974 21.7806C15.98 22.3338 14.5809 22.6103 12.7231 22.6103H7.86078L10.9112 14.8895H15.7735C17.6313 14.8895 18.801 15.166 19.2827 15.7192C19.7643 16.2954 19.7185 17.2864 19.1451 18.7614Z" fill="white"/>
<path d="M71.1164 17.2173C70.176 16.4337 68.5705 16.0419 66.3228 16.0419H58.8688L54.167 27.8882H58.0431L59.2816 24.7307H62.6073C64.0751 24.7307 65.2907 24.6385 66.254 24.4311C67.2173 24.2237 68.1118 23.878 68.9375 23.394C69.6255 23.0022 70.1989 22.5643 70.6576 22.0803C71.1164 21.5963 71.4604 21.0662 71.6897 20.49C72.2631 19.0841 72.0567 18.0009 71.1164 17.2173ZM67.699 20.3287C67.332 21.2506 66.7586 21.8959 65.9559 22.2877C65.1531 22.6795 63.9605 22.8639 62.4008 22.8639H60.0385L62.0109 17.9087H64.6715C66.1393 17.9087 67.1026 18.0931 67.5613 18.4618C67.9971 18.8076 68.0659 19.4298 67.699 20.3287Z" fill="white"/>
</g>
<defs>
<clipPath id="clip0_1300_6594">
<rect width="171.273" height="30" fill="white" transform="translate(0.727539 0.830566)"/>
</clipPath>
</defs>
</svg>
